<svg width="24" height="24" viewBox="0 0 24 24" fill="none" xmlns="http://www.w3.org/2000/svg">
<path d="M7.33333 17.2111V19C7.33333 19.2063 7.25139 19.4041 7.10553 19.55C6.95967 19.6958 6.76184 19.7778 6.55556 19.7778C6.34928 19.7778 6.15145 19.6958 6.00558 19.55C5.85972 19.4041 5.77778 19.2063 5.77778 19V15.1111C5.77778 14.9048 5.85972 14.707 6.00558 14.5611C6.15145 14.4153 6.34928 14.3333 6.55556 14.3333H10.4444C10.6507 14.3333 10.8486 14.4153 10.9944 14.5611C11.1403 14.707 11.2222 14.9048 11.2222 15.1111C11.2222 15.3174 11.1403 15.5152 10.9944 15.6611C10.8486 15.807 10.6507 15.8889 10.4444 15.8889H8.18889C8.95462 16.6395 9.92493 17.1472 10.9781 17.3485C12.0313 17.5497 13.1205 17.4355 14.109 17.0202C15.0975 16.6048 15.9414 15.9068 16.5348 15.0137C17.1281 14.1207 17.4446 13.0722 17.4444 12C17.4444 11.7937 17.5264 11.5959 17.6722 11.45C17.8181 11.3042 18.0159 11.2222 18.2222 11.2222C18.4285 11.2222 18.6263 11.3042 18.7722 11.45C18.9181 11.5959 19 11.7937 19 12C18.9988 13.3508 18.6068 14.6723 17.8712 15.8053C17.1357 16.9382 16.0881 17.8341 14.8548 18.385C13.6215 18.9359 12.2552 19.1182 10.9206 18.9099C9.58596 18.7016 8.34013 18.1116 7.33333 17.2111V17.2111ZM16.6667 6.7889V5.00001C16.6667 4.79373 16.7486 4.5959 16.8945 4.45003C17.0403 4.30417 17.2382 4.22223 17.4444 4.22223C17.6507 4.22223 17.8486 4.30417 17.9944 4.45003C18.1403 4.5959 18.2222 4.79373 18.2222 5.00001V8.8889C18.2222 9.09518 18.1403 9.29301 17.9944 9.43887C17.8486 9.58473 17.6507 9.66667 17.4444 9.66667H13.5556C13.3493 9.66667 13.1514 9.58473 13.0056 9.43887C12.8597 9.29301 12.7778 9.09518 12.7778 8.8889C12.7778 8.68262 12.8597 8.48479 13.0056 8.33892C13.1514 8.19306 13.3493 8.11112 13.5556 8.11112H15.8111C15.0454 7.36055 14.0751 6.8528 13.0219 6.65155C11.9687 6.45029 10.8795 6.5645 9.89102 6.97985C8.90249 7.3952 8.05862 8.09319 7.46524 8.98627C6.87186 9.87936 6.5554 10.9278 6.55556 12C6.55556 12.2063 6.47361 12.4041 6.32775 12.55C6.18189 12.6958 5.98406 12.7778 5.77778 12.7778C5.5715 12.7778 5.37367 12.6958 5.22781 12.55C5.08194 12.4041 5 12.2063 5 12C5.00123 10.6493 5.39324 9.3277 6.12875 8.19476C6.86426 7.06181 7.91186 6.16587 9.14517 5.61499C10.3785 5.06411 11.7448 4.88182 13.0794 5.09012C14.414 5.29841 15.6599 5.88839 16.6667 6.7889V6.7889Z" fill="black"/>
</svg>
